<?xml version="1.0" encoding="UTF-8" standalone="no"?>
<!DOCTYPE svg PUBLIC "-//W3C//DTD SVG 20010904//EN"
              "http://www.w3.org/TR/2001/REC-SVG-20010904/DTD/svg10.dtd">

<svg xmlns="http://www.w3.org/2000/svg"
     width="48px" height="48px"
     viewBox="0 0 200 200">
  <path id="Selection"
        fill="#fff" stroke="#fff" stroke-width="0"
        d="M 17.00,120.00
           C 26.54,118.42 33.50,103.41 36.33,95.00
             36.33,95.00 43.03,74.00 43.03,74.00
             43.03,74.00 46.84,63.00 46.84,63.00
             50.30,50.39 53.86,35.18 65.00,27.00
             67.77,38.40 64.67,52.49 63.28,64.00
             63.28,64.00 60.80,87.00 60.80,87.00
             59.69,92.96 56.73,106.38 63.13,109.97
             69.13,113.34 79.83,105.47 86.00,104.00
             86.96,110.13 89.73,115.94 93.30,121.00
             95.62,124.30 100.56,129.88 100.56,134.00
             100.56,137.60 95.80,143.79 93.81,147.00
             88.86,154.98 84.25,162.30 84.01,172.00
             83.95,174.47 83.77,178.74 85.02,180.94
             88.09,186.05 96.84,183.85 100.83,180.94
             107.68,176.19 111.79,167.26 111.99,159.00
             112.23,148.72 107.99,139.15 108.67,135.00
             109.42,130.39 114.84,123.65 117.72,120.00
             117.72,120.00 133.25,100.00 133.25,100.00
             139.42,92.62 144.30,87.19 153.00,82.52
             159.15,79.22 164.17,80.74 165.88,88.00
             166.02,89.74 165.99,92.20 165.88,94.00
             165.88,94.00 165.88,100.00 165.88,100.00
             165.86,109.99 161.92,109.35 159.67,120.00
             158.72,124.49 158.22,127.33 163.00,129.00
             165.99,121.48 167.66,112.67 174.02,107.22
             182.07,100.32 187.61,104.83 190.00,98.27
             186.00,98.00 181.95,97.79 178.00,98.27
             175.97,98.88 173.52,99.90 171.74,98.27
             169.75,96.54 170.10,92.44 169.91,90.00
             169.38,83.25 166.64,74.16 158.00,75.31
             152.99,75.99 147.11,81.52 143.58,84.92
             131.60,96.44 129.11,99.34 118.59,112.00
             116.35,114.70 108.69,125.98 106.05,126.38
             103.64,126.74 101.80,123.65 100.58,121.99
             97.18,117.39 92.28,110.51 90.79,105.00
             89.31,99.52 91.81,97.76 92.00,90.00
             83.87,92.53 86.57,98.57 74.00,103.38
             70.88,104.57 67.25,105.76 64.81,102.69
             62.18,99.54 64.30,89.07 64.81,85.00
             64.81,85.00 70.00,38.00 70.00,38.00
             70.04,33.93 71.21,19.63 64.98,19.63
             62.43,19.63 60.71,22.14 59.44,24.02
             59.44,24.02 50.03,41.00 50.03,41.00
             50.03,41.00 39.88,68.00 39.88,68.00
             39.88,68.00 25.80,93.00 25.80,93.00
             20.55,101.81 15.58,109.36 17.00,120.00 Z
           M 35.00,88.00
           C 34.54,96.34 29.59,109.35 21.00,112.00
             21.80,104.52 29.27,92.78 35.00,88.00 Z
           M 104.00,141.00
           C 110.24,151.11 109.65,167.51 99.82,175.35
             98.67,176.27 97.35,176.96 96.00,177.52
             82.85,182.93 86.21,168.88 89.31,162.00
             89.31,162.00 94.20,153.00 94.20,153.00
             97.37,147.76 99.00,144.76 104.00,141.00 Z" />
</svg>
